<svg xmlns="http://www.w3.org/2000/svg" width="270" height="71.01" viewBox="0 0 270 71.01"><title>logo</title><path d="M86.49 43.11h7.65v1.79h-5.61v4h5.61v1.79h-5.61v6.71h-2V43.11zm22.36-.25a7.41 7.41 0 0 1 5.62 12.58l-.09.09a7.65 7.65 0 0 1-5.61 2 7.5 7.5 0 0 1-5.44-2 6.68 6.68 0 0 1-2.13-5.19 7.13 7.13 0 0 1 2.21-5.34 7.8 7.8 0 0 1 5.44-2.14zm.09 2a5.38 5.38 0 0 0-5.69 5.14v.38a5.26 5.26 0 0 0 1.62 3.91 6 6 0 0 0 8 0 5.61 5.61 0 0 0 1.62-3.91 5.52 5.52 0 0 0-5.53-5.44zm25.68-1.75h2v8.16a11.55 11.55 0 0 1-.26 2.47 6.58 6.58 0 0 1-.6 1.36 9 9 0 0 1-.85 1 6.45 6.45 0 0 1-4.42 1.45 6.68 6.68 0 0 1-4.49-1.42 3.4 3.4 0 0 1-.85-1 6.58 6.58 0 0 1-.6-1.36 13 13 0 0 1-.26-2.55V43h2v8.16a6.28 6.28 0 0 0 .51 2.84 3.51 3.51 0 0 0 1.45 1.28 5 5 0 0 0 2.21.51 4.18 4.18 0 0 0 3-.94 3.84 3.84 0 0 0 .85-1.19 5.71 5.71 0 0 0 .26-2.38l.09-8.16zm21.77 0h2v14.38h-1.79l-9.61-11.05v11.05h-1.87V43.11h1.7l9.69 11.14-.09-11.14zm10.54 14.38V43.11h4.85a9.42 9.42 0 0 1 4.59.85 7.17 7.17 0 0 1 1.63 11.4 6.71 6.71 0 0 1-2.47 1.53 10.28 10.28 0 0 1-1.53.43 12.81 12.81 0 0 1-2.55.09l-4.51.09zm4.59-12.59H169v10.72h2.64a22.41 22.41 0 0 0 2.38-.17 4.92 4.92 0 0 0 1.45-.51 5.3 5.3 0 0 0 1-.77 5.53 5.53 0 0 0 1.53-3.91 4.7 4.7 0 0 0-1.53-3.74 7.7 7.7 0 0 0-1.36-.94 4.08 4.08 0 0 0-1.45-.43 8.56 8.56 0 0 0-2.13-.25zm20.07-1.9H193l6.46 14.46h-2.13l-1.87-4.25h-6.16l-1.79 4.25h-2.13zm3.06 8.33l-2.3-5.19-2.13 5.19zm8.59-8.22h12v1.79h-5v12.59h-2V44.9h-4.93v-1.79zm19.39 0h2v14.38h-2zm17.78-.25A7.41 7.41 0 0 1 246 55.44l-.09.09a7.65 7.65 0 0 1-5.61 2 7.5 7.5 0 0 1-5.44-2 6.68 6.68 0 0 1-2.13-5.19A7.13 7.13 0 0 1 235 45a7.94 7.94 0 0 1 5.41-2.14zm.09 2a5.38 5.38 0 0 0-5.7 5.14v.38a5.26 5.26 0 0 0 1.62 3.91 6 6 0 0 0 8 0 5.61 5.61 0 0 0 1.58-3.95 5.52 5.52 0 0 0-5.53-5.44zm27.12-1.75h2v14.38h-1.79l-9.61-11.05v11.05h-2V43.11h1.7l9.69 11.14V43.11z" fill="#63666a"/><path d="M103.67 31.89h-4.51l-1.36-3.32h-7.57L89 31.89h-4.47L91.33 15h4.85zM93.8 19l-2.47 6.6h5.19zm31.38 12.89h-3.57l-9.35-10.8v10.8H108V15.05h3.83l9 10.29V15.05H125l.17 16.84zm23.39 0H145l-9.35-10.8v10.8h-4.17V15.05h3.83l9 10.29V15.05h4.17v16.84h.09zm18.79 0h-12.42V15.05h12.25v3.06h-8.08v3.57h7.74v3.06h-7.74v4.08h8.25v3.06zm22.79 0h-3.57l-9.35-10.8v10.8h-4.17V15.05h3.83l9 10.29V15.05h4.25v16.84zm13.52-16.84c4 0 5.61 2.38 5.61 4.25a3.8 3.8 0 0 1-2.3 3.4 4.38 4.38 0 0 1 3.58 4.3c0 2-1 4.93-6 4.93h-8.25V15.05h7.31zm-3.06 6.72h2.21c1.53 0 2.13-.94 2.13-1.79s-.6-1.79-2.13-1.79h-2.21zm0 7.06H203c2.3 0 3.15-.6 3.15-2 0-1.28-1.11-1.87-2.55-1.87h-3v3.91zm28.06 3.06h-12.41V15.05h12.24v3.06h-8.08v3.57h7.65v3.06h-7.65v4.08h8.25v3.06zm13.18-16.84c3.49 0 5.53 2.3 5.53 4.85a4.4 4.4 0 0 1-2.89 4.17c1.7.85 2.21 3 4.59 7.91h-4.59c-1.79-3.57-2.47-6.89-4.76-6.89h-1.19V32h-4.25V15.05zm-3.32 6.89h2.21c1.19 0 2.3-.51 2.3-2 0-1.28-.85-1.87-2.38-1.87h-2.13v3.83zm31.13-2.04a13.49 13.49 0 0 0-6.29-1.53c-4.59 0-6.21 2.81-6.21 5.36 0 3 2.38 5 5.87 5a6.41 6.41 0 0 0 2.81-.6v-2h-2.47V23H270v6.89c-1.28 1.28-4.34 2.3-7.14 2.3-5.87 0-10.12-3.57-10.12-8.67s4.17-8.67 10.2-8.67a16 16 0 0 1 6.63 1.36l.09 3.74zM0 35.46v1.7a6.44 6.44 0 0 0 .09 1.28 40.66 40.66 0 0 0 1.53 7.91c20.49-13.27 40.82-41.07 43.62-45a32.78 32.78 0 0 0-5-1l-.95-.09-.93-.09H38L37.08 0h-1.62A35.55 35.55 0 0 0 0 35.46zm3.06 14.37c.43 1 .94 2 1.45 3a35.51 35.51 0 0 0 31 18.2 36.28 36.28 0 0 0 14.71-3.15 15.23 15.23 0 0 1-9.78-7.74c-2.51-4.35-3.79-10.48-3.96-18.14h-13v-3.82h13a118.51 118.51 0 0 1 .94-12.33c.34-3 .94-6.63 1.7-10.29l-.51.6c-4.42 5.27-19.73 23.38-35.55 33.67z" fill="#0033a0"/><path d="M46.77 1.79A131.81 131.81 0 0 0 41.16 31c-.17 2.21-.34 4.42-.34 6.46v.6h6.89v3.83h-6.89c.26 8.84 2 15.05 5.19 18.62a11 11 0 0 0 1.45 1.36c.94.68 6.12 3.83 11.31.26 3.06-2 6-5.61 8.5-10.88.09-.26.26-.51.34-.77l.09-.09A35.61 35.61 0 0 0 50.43 3.23c-1.19-.51-2.38-1.02-3.66-1.44z" fill="#0033a0"/></svg>